<svg width="704" height="526" viewBox="0 0 704 526" fill="none" xmlns="http://www.w3.org/2000/svg">
<path d="M464.401 119.242C464.401 185.098 410.979 238.484 345.079 238.484C279.18 238.484 225.757 185.098 225.757 119.242C225.757 53.3865 279.18 0 345.079 0C410.979 0 464.401 53.3865 464.401 119.242Z" fill="#EDD16B"/>
<path d="M35.298 94.1595L0 131.149V278.125H704V140.947L690.763 127.229L676.546 140.947L615.755 94.1595L574.819 131.149L506.429 68.6835L443.922 131.149L394.897 82.4013L363.766 115.471L302.975 68.6835L285.571 82.4013L267.922 68.6835L213.014 115.471L177.961 82.4013L99.766 156.625L35.298 94.1595Z" fill="#86DC77"/>
<path d="M8.76994 183.21L0.490492 176.849V307.984H704V158.255L676.483 183.21L607.569 112.016L556.188 158.255L533.541 132.567L469.01 183.21L434.918 147.98L411.297 168.776L351.88 112.016L309.752 158.255L275.66 123.27L235.724 158.255L200.902 123.27L122.734 194.464L62.0993 132.567L8.76994 183.21Z" fill="#348328"/>
<path d="M10.5023 248.704L0.490492 236.946V526H704V228.617L626.836 159.538L548.207 236.946L481.299 186.484L429.287 236.946L351.265 159.538L295.376 206.571L230.029 119.364L135.8 228.617L84.2474 174.726L10.5023 248.704Z" fill="#E7E7E7"/>
</svg>
