<svg width="1294" height="613" viewBox="0 0 1294 613" fill="none" xmlns="http://www.w3.org/2000/svg">
<path d="M853.261 219.668C853.261 340.988 754.991 439.337 633.77 439.337C512.548 439.337 414.278 340.988 414.278 219.668C414.278 98.3489 512.548 0 633.77 0C754.991 0 853.261 98.3489 853.261 219.668Z" fill="#EDD16B"/>
<path d="M63.9303 173.461L-1 241.603V512.364H1294V259.653L1269.65 234.382L1243.5 259.653L1131.67 173.461L1056.37 241.603L930.57 126.529L815.589 241.603L725.408 151.8L668.143 212.721L556.319 126.529L524.305 151.8L491.839 126.529L390.837 212.721L326.357 151.8L182.518 288.535L63.9303 173.461Z" fill="#86DC77"/>
<path d="M15.1322 337.511L-0.0977452 325.793V567.371H1294V291.539L1243.38 337.511L1116.62 206.356L1022.1 291.539L980.442 244.215L861.738 337.511L799.027 272.609L755.576 310.919L646.279 206.356L568.786 291.539L506.074 227.088L432.612 291.539L368.557 227.088L224.768 358.243L113.231 244.215L15.1322 337.511Z" fill="#348328"/>
<path d="M18.3188 458.164L-0.0977452 436.503V969H1294V421.16L1152.06 293.902L1007.42 436.503L884.345 343.541L788.669 436.503L645.148 293.902L542.341 380.545L422.135 219.894L248.802 421.16L153.972 321.881L18.3188 458.164Z" fill="#E7E7E7"/>
</svg>
