<svg width="1919" height="1080" viewBox="0 0 1919 1080" fill="none" xmlns="http://www.w3.org/2000/svg">
<path d="M1265.55 325.424C1265.55 505.15 1119.85 650.847 940.126 650.847C760.399 650.847 614.702 505.15 614.702 325.424C614.702 145.697 760.399 0 940.126 0C1119.85 0 1265.55 145.697 1265.55 325.424Z" fill="#EDD16B"/>
<path d="M95.2674 256.971L-1 357.918V759.032H1919V384.659L1882.9 347.221L1844.13 384.659L1678.33 256.971L1566.69 357.918L1380.17 187.444L1209.7 357.918L1075.99 224.881L991.089 315.132L825.295 187.444L777.83 224.881L729.696 187.444L579.947 315.132L484.348 224.881L271.089 427.444L95.2674 256.971Z" fill="#86DC77"/>
<path d="M22.918 499.999L0.337706 482.639V840.52H1919V431.895L1843.95 499.999L1656.01 305.702L1515.88 431.895L1454.11 361.787L1278.12 499.999L1185.14 403.852L1120.72 460.605L958.673 305.702L843.779 431.895L750.801 336.415L641.884 431.895L546.914 336.415L333.729 530.713L168.362 361.787L22.918 499.999Z" fill="#348328"/>
<path d="M27.6425 678.738L0.337706 646.649V1435.51H1919V623.919L1708.55 435.395L1494.11 646.649L1311.63 508.933L1169.78 646.649L956.995 435.395L804.572 563.752L626.351 325.757L369.363 623.919L228.766 476.844L27.6425 678.738Z" fill="#E7E7E7"/>
</svg>
