<svg width="40" height="40" viewBox="0 0 40 40" fill="none" xmlns="http://www.w3.org/2000/svg">
<path d="M30 0H10C4.47715 0 0 4.47715 0 10V30C0 35.5228 4.47715 40 10 40H30C35.5228 40 40 35.5228 40 30V10C40 4.47715 35.5228 0 30 0Z" fill="url(#paint0_radial_2_35)"/>
<path d="M20 10.988C22.9157 10.988 23.3133 10.988 24.506 10.988C25.5663 10.988 26.0964 11.253 26.494 11.3855C27.0241 11.6506 27.4217 11.7831 27.8193 12.1807C28.2169 12.5783 28.4819 12.9759 28.6145 13.506C28.747 13.9036 28.8795 14.4337 29.012 15.494C29.012 16.6867 29.012 16.9518 29.012 20C29.012 23.0482 29.012 23.3133 29.012 24.506C29.012 25.5663 28.747 26.0964 28.6145 26.494C28.3494 27.0241 28.2169 27.4217 27.8193 27.8193C27.4217 28.2169 27.0241 28.4819 26.494 28.6145C26.0964 28.747 25.5663 28.8795 24.506 29.012C23.3133 29.012 23.0482 29.012 20 29.012C16.9518 29.012 16.6867 29.012 15.494 29.012C14.4337 29.012 13.9036 28.747 13.506 28.6145C12.9759 28.3494 12.5783 28.2169 12.1807 27.8193C11.7831 27.4217 11.5181 27.0241 11.3855 26.494C11.253 26.0964 11.1205 25.5663 10.988 24.506C10.988 23.3133 10.988 23.0482 10.988 20C10.988 16.9518 10.988 16.6867 10.988 15.494C10.988 14.4337 11.253 13.9036 11.3855 13.506C11.6506 12.9759 11.7831 12.5783 12.1807 12.1807C12.5783 11.7831 12.9759 11.5181 13.506 11.3855C13.9036 11.253 14.4337 11.1205 15.494 10.988C16.6867 10.988 17.0843 10.988 20 10.988ZM20 9C16.9518 9 16.6867 9 15.494 9C14.3012 9 13.506 9.2651 12.8434 9.5301C12.1807 9.7952 11.5181 10.1928 10.8554 10.8554C10.1928 11.5181 9.9277 12.0482 9.5301 12.8434C9.2651 13.506 9.1325 14.3012 9 15.494C9 16.6867 9 17.0843 9 20C9 23.0482 9 23.3133 9 24.506C9 25.6988 9.2651 26.494 9.5301 27.1566C9.7952 27.8193 10.1928 28.4819 10.8554 29.1446C11.5181 29.8072 12.0482 30.0723 12.8434 30.4699C13.506 30.7349 14.3012 30.8675 15.494 31C16.6867 31 17.0843 31 20 31C22.9157 31 23.3133 31 24.506 31C25.6988 31 26.494 30.7349 27.1566 30.4699C27.8193 30.2048 28.4819 29.8072 29.1446 29.1446C29.8072 28.4819 30.0723 27.9518 30.4699 27.1566C30.7349 26.494 30.8675 25.6988 31 24.506C31 23.3133 31 22.9157 31 20C31 17.0843 31 16.6867 31 15.494C31 14.3012 30.7349 13.506 30.4699 12.8434C30.2048 12.1807 29.8072 11.5181 29.1446 10.8554C28.4819 10.1928 27.9518 9.9277 27.1566 9.5301C26.494 9.2651 25.6988 9.1325 24.506 9C23.3133 9 23.0482 9 20 9Z" fill="white"/>
<path d="M20 14.3012C16.8193 14.3012 14.3012 16.8193 14.3012 20C14.3012 23.1807 16.8193 25.6988 20 25.6988C23.1807 25.6988 25.6988 23.1807 25.6988 20C25.6988 16.8193 23.1807 14.3012 20 14.3012ZM20 23.7108C18.012 23.7108 16.2892 22.1205 16.2892 20C16.2892 18.012 17.8795 16.2892 20 16.2892C21.988 16.2892 23.7108 17.8795 23.7108 20C23.7108 21.988 21.988 23.7108 20 23.7108Z" fill="white"/>
<path d="M25.8313 15.494C26.5633 15.494 27.1566 14.9006 27.1566 14.1687C27.1566 13.4367 26.5633 12.8434 25.8313 12.8434C25.0994 12.8434 24.506 13.4367 24.506 14.1687C24.506 14.9006 25.0994 15.494 25.8313 15.494Z" fill="white"/>
<defs>
<radialGradient id="paint0_radial_2_35" cx="0" cy="0" r="1" gradientUnits="userSpaceOnUse" gradientTransform="translate(40.8047 0.812501) scale(92.3719)">
<stop stop-color="#F9ED32"/>
<stop offset="0.36" stop-color="#EE2A7B"/>
<stop offset="0.44" stop-color="#D22A8A"/>
<stop offset="0.6" stop-color="#8B2AB2"/>
<stop offset="0.83" stop-color="#1B2AF0"/>
<stop offset="0.88" stop-color="#002AFF"/>
</radialGradient>
</defs>
</svg>
