<svg width="3840" height="1436" viewBox="0 0 3840 1436" fill="none" xmlns="http://www.w3.org/2000/svg">
<path d="M2227.05 325.424C2227.05 505.15 2081.35 650.847 1901.63 650.847C1721.9 650.847 1576.2 505.15 1576.2 325.424C1576.2 145.697 1721.9 0 1901.63 0C2081.35 0 2227.05 145.697 2227.05 325.424Z" fill="#EDD16B"/>
<path d="M1146 277L900 563.752L0 1435.51H3840.5L2880.5 384.659L2844.4 347.221L2805.62 384.659L2639.83 256.971L2528.19 357.918L2341.67 187.444L2171.2 357.918L2037.49 224.881L1952.59 315.132L1786.8 187.444L1739.33 224.881L1691.2 187.444L1541.45 315.132L1445.85 224.881L1238 397L1146 277Z" fill="#86DC77"/>
<path d="M1016.93 650.847L900 733.5L758.5 765.5L416.5 1076L0 1435.51H3840.5L3349 969L3022.5 650.847L2844.4 431.895L2805.45 499.999L2617.51 305.702L2477.38 431.895L2415.61 361.787L2239.62 499.999L2146.64 403.852L2082.22 460.605L1920.17 305.702L1805.28 431.895L1712.3 336.415L1603.38 431.895L1508.41 336.415L1315.5 515L1212 409.5L1016.93 650.847Z" fill="#348328"/>
<path d="M989.143 678.738L961.838 646.649L0 1435.51H3840.5L2880.5 623.919L2670.05 435.395L2455.61 646.649L2273.13 508.933L2131.28 646.649L1918.49 435.395L1766.07 563.752L1587.85 325.757L1330.86 623.919L1190.27 476.844L989.143 678.738Z" fill="#E7E7E7"/>
</svg>
