<svg width="40" height="40" viewBox="0 0 40 40" fill="none" xmlns="http://www.w3.org/2000/svg">
<path d="M30 0H10C4.47715 0 0 4.47715 0 10V30C0 35.5228 4.47715 40 10 40H30C35.5228 40 40 35.5228 40 30V10C40 4.47715 35.5228 0 30 0Z" fill="url(#paint0_linear_2_32)"/>
<path d="M24.4946 27.8381L27.5 12.0558C27.5 11.0053 26.1131 11.6401 26.1131 11.6401L9.23909 18.5353C9.23909 18.5353 8.44009 18.8196 8.50359 19.3453C8.56629 19.8701 9.21759 20.1114 9.21759 20.1114L13.3568 21.5621L24.0856 14.465C24.6562 14.1043 24.9613 14.3886 24.4698 14.8661C24.1524 15.1745 16.8891 21.977 15.9524 22.853L15.9846 22.8694L22.9189 28.4076C24.0741 28.9324 24.4946 27.8381 24.4946 27.8381Z" fill="white"/>
<defs>
<linearGradient id="paint0_linear_2_32" x1="20" y1="0" x2="20" y2="40" gradientUnits="userSpaceOnUse">
<stop stop-color="#2EBAFF"/>
<stop offset="1" stop-color="#0088CB"/>
</linearGradient>
</defs>
</svg>
