<svg width="40" height="40" viewBox="0 0 40 40" fill="none" xmlns="http://www.w3.org/2000/svg">
<path d="M30 0H10C4.47715 0 0 4.47715 0 10V30C0 35.5228 4.47715 40 10 40H30C35.5228 40 40 35.5228 40 30V10C40 4.47715 35.5228 0 30 0Z" fill="#13C656"/>
<path d="M28.0732 11.9167C26.1916 10.0417 23.6829 9 21.0348 9C15.5296 9 11.0697 13.4444 11.0697 18.9306C11.0697 20.6667 11.5575 22.4028 12.3937 23.8611L11 29L16.2962 27.6111C17.7596 28.375 19.3624 28.7917 21.0348 28.7917C26.5401 28.7917 31 24.3472 31 18.8611C30.9303 16.2917 29.9547 13.7917 28.0732 11.9167ZM25.8432 22.4722C25.6341 23.0278 24.6585 23.5833 24.1707 23.6528C23.7526 23.7222 23.1951 23.7222 22.6376 23.5833C22.2892 23.4444 21.8014 23.3056 21.2439 23.0278C18.7352 21.9861 17.1324 19.4861 16.993 19.2778C16.8537 19.1389 15.9477 17.9583 15.9477 16.7083C15.9477 15.4583 16.5749 14.9028 16.784 14.625C16.993 14.3472 17.2718 14.3472 17.4808 14.3472C17.6202 14.3472 17.8293 14.3472 17.9686 14.3472C18.108 14.3472 18.3171 14.2778 18.5261 14.7639C18.7352 15.25 19.223 16.5 19.2927 16.5694C19.3624 16.7083 19.3624 16.8472 19.2927 16.9861C19.223 17.125 19.1533 17.2639 19.0139 17.4028C18.8746 17.5417 18.7352 17.75 18.6655 17.8194C18.5261 17.9583 18.3868 18.0972 18.5261 18.3056C18.6655 18.5833 19.1533 19.3472 19.9199 20.0417C20.8955 20.875 21.662 21.1528 21.9408 21.2917C22.2195 21.4306 22.3589 21.3611 22.4983 21.2222C22.6376 21.0833 23.1254 20.5278 23.2648 20.25C23.4042 19.9722 23.6132 20.0417 23.8223 20.1111C24.0314 20.1806 25.2857 20.8056 25.4948 20.9444C25.7735 21.0833 25.9129 21.1528 25.9826 21.2222C26.0523 21.4306 26.0523 21.9167 25.8432 22.4722Z" fill="white"/>
</svg>
