<?xml version="1.0" standalone="no"?>
<!DOCTYPE svg PUBLIC "-//W3C//DTD SVG 20010904//EN"
 "http://www.w3.org/TR/2001/REC-SVG-20010904/DTD/svg10.dtd">
<svg version="1.0" xmlns="http://www.w3.org/2000/svg"
 width="140.000000pt" height="140.000000pt" viewBox="0 0 140.000000 140.000000"
 preserveAspectRatio="xMidYMid meet">
<metadata>
Created by potrace 1.14, written by Peter Selinger 2001-2017
</metadata>
<g transform="translate(0.000000,140.000000) scale(0.100000,-0.100000)"
fill="#000000" stroke="none">
<path d="M262 1048 c-19 -19 -15 -86 6 -96 17 -10 56 -1 65 15 15 27 16 63 1
77 -18 19 -55 21 -72 4z"/>
<path d="M715 1052 c-36 -7 -86 -53 -107 -97 -28 -58 -20 -75 37 -75 40 0 50
-5 90 -45 58 -57 80 -69 103 -56 49 26 65 88 32 121 -18 18 -30 21 -68 16 -57
-7 -86 7 -59 28 12 9 29 11 58 6 29 -6 44 -4 55 7 19 20 18 29 -8 54 -35 33
-91 50 -133 41z m55 -57 c0 -8 -9 -15 -20 -15 -20 0 -26 11 -13 23 12 13 33 7
33 -8z"/>
<path d="M185 1032 c-54 -12 -42 -92 14 -92 14 0 41 29 41 45 0 23 -34 52 -55
47z"/>
<path d="M403 1032 c-34 -5 -35 -30 -2 -78 44 -64 59 -106 59 -166 0 -84 5
-86 140 -74 98 9 110 13 111 39 5 90 -44 122 -117 77 -33 -21 -33 -21 -43 -1
-19 34 -13 81 14 112 28 34 24 53 -13 68 -36 14 -122 27 -149 23z"/>
<path d="M1145 994 c-31 -34 -33 -35 -40 -15 -10 31 -39 25 -74 -14 -31 -35
-31 -35 -31 -10 0 31 -13 31 -65 2 -42 -24 -42 -24 -29 -98 7 -46 -13 -87 -76
-154 -61 -66 -73 -87 -57 -108 17 -23 82 -31 131 -17 66 18 88 60 97 182 6 91
18 132 35 115 8 -8 9 -54 2 -92 -24 -125 -28 -165 -16 -189 6 -14 16 -26 22
-27 6 0 21 -2 33 -5 12 -2 32 5 45 15 26 22 29 61 14 206 -6 57 -4 89 4 110
l12 30 14 -30 c10 -22 12 -62 9 -146 -5 -140 7 -177 68 -196 31 -11 44 -10 77
3 69 28 102 93 63 125 -9 8 -30 18 -47 24 -56 18 -81 107 -63 224 15 99 -62
138 -128 65z"/>
<path d="M206 929 c-27 -8 -45 -24 -46 -41 0 -4 12 -18 26 -32 22 -20 26 -30
21 -56 -11 -54 -43 -87 -122 -124 -59 -28 -76 -41 -81 -62 -6 -22 -2 -32 20
-51 15 -13 40 -24 57 -24 16 -1 35 -2 42 -2 42 -3 98 15 112 37 15 22 15 27 1
55 -9 16 -16 37 -16 45 0 38 94 64 107 29 4 -9 -5 -36 -20 -62 -18 -33 -23
-51 -16 -63 21 -38 160 -53 218 -23 26 13 32 21 29 43 -2 21 -13 32 -45 47
-45 21 -60 46 -69 122 -3 21 -14 56 -24 79 -32 64 -123 104 -194 83z m106
-106 c25 -23 23 -45 -4 -41 -17 2 -23 10 -23 31 -1 32 2 33 27 10z"/>
<path d="M330 440 c-20 -20 -26 -55 -12 -77 4 -7 22 -15 39 -19 25 -5 34 -2
47 17 45 64 -20 133 -74 79z m28 -27 c-2 -9 -8 -18 -15 -20 -7 -3 -9 3 -6 16
6 25 26 28 21 4z m39 2 c8 -22 -6 -33 -17 -15 -13 20 -12 30 0 30 6 0 13 -7
17 -15z"/>
<path d="M710 437 c0 -16 7 -30 16 -34 14 -5 13 -9 -7 -24 -19 -14 -21 -21
-12 -30 10 -10 17 -9 34 7 27 24 52 72 44 84 -10 17 -35 11 -35 -7 0 -15 -4
-13 -20 7 l-20 25 0 -28z"/>
<path d="M958 453 c-22 -5 -35 -78 -17 -99 7 -8 21 -14 32 -12 28 4 34 28 8
28 -12 0 -21 5 -21 10 0 6 7 10 15 10 21 0 19 18 -2 23 -15 3 -14 5 5 14 19 7
21 11 10 19 -7 6 -21 9 -30 7z"/>
<path d="M1038 453 c-24 -6 -31 -33 -13 -53 19 -21 19 -30 0 -30 -8 0 -15 -7
-15 -15 0 -17 23 -20 51 -5 23 13 24 24 2 46 -16 15 -16 17 0 29 14 10 14 14
5 22 -7 5 -20 8 -30 6z"/>
<path d="M1102 452 c-18 -6 -14 -32 4 -32 12 0 15 -7 12 -30 -3 -18 1 -35 9
-41 10 -9 13 -3 13 30 0 30 4 41 15 41 8 0 15 6 15 14 0 14 -46 26 -68 18z"/>
<path d="M237 430 c-20 -29 -10 -70 21 -81 19 -7 29 -6 41 5 12 13 12 16 0 20
-43 13 -49 16 -49 26 0 6 12 15 26 20 14 6 22 14 19 20 -10 17 -43 11 -58 -10z"/>
<path d="M451 436 c-18 -22 -30 -72 -20 -87 4 -7 12 -10 16 -5 8 8 9 11 13 49
1 20 2 20 12 -5 12 -34 26 -36 38 -5 8 21 9 21 9 -5 1 -18 6 -28 16 -28 18 0
19 12 4 63 -11 42 -26 48 -38 15 l-8 -23 -7 23 c-8 25 -19 28 -35 8z"/>
<path d="M560 400 c0 -44 3 -50 24 -56 26 -6 46 1 46 17 0 5 -9 9 -20 9 -11 0
-20 5 -20 10 0 6 7 10 15 10 23 0 18 18 -7 23 l-23 4 23 8 c32 11 27 25 -8 25
-29 0 -30 -1 -30 -50z"/>
<path d="M637 443 c-8 -15 2 -86 13 -97 8 -8 16 -5 31 13 22 26 25 61 7 79
-13 13 -45 16 -51 5z m41 -46 c5 -24 -15 -21 -21 4 -3 13 -1 19 6 16 7 -2 13
-11 15 -20z"/>
<path d="M862 399 c3 -54 28 -85 28 -35 0 14 6 26 13 26 7 0 4 7 -7 15 -19 14
-19 15 8 15 39 0 28 24 -13 28 l-32 3 3 -52z"/>
</g>
</svg>
